<?xml version="1.0" encoding="UTF-8" standalone="no"?>
<svg
   xmlns:dc="http://purl.org/dc/elements/1.1/"
   xmlns:cc="http://creativecommons.org/ns#"
   xmlns:rdf="http://www.w3.org/1999/02/22-rdf-syntax-ns#"
   xmlns:svg="http://www.w3.org/2000/svg"
   xmlns="http://www.w3.org/2000/svg"
   xmlns:sodipodi="http://sodipodi.sourceforge.net/DTD/sodipodi-0.dtd"
   xmlns:inkscape="http://www.inkscape.org/namespaces/inkscape"
   height="574.21515"
   width="910.00153"
   id="svg2"
   version="1.1"
   inkscape:version="0.91 r13725"
   sodipodi:docname="phrondlogo.svg"
   style="fill:none;stroke:#000000">
  <metadata
     id="metadata46">
    <rdf:RDF>
      <cc:Work
         rdf:about="">
        <dc:format>image/svg+xml</dc:format>
        <dc:type
           rdf:resource="http://purl.org/dc/dcmitype/StillImage" />
        <dc:title></dc:title>
      </cc:Work>
    </rdf:RDF>
  </metadata>
  <defs
     id="defs44" />
  <sodipodi:namedview
     pagecolor="#000000"
     bordercolor="#666666"
     borderopacity="1"
     objecttolerance="10"
     gridtolerance="10"
     guidetolerance="10"
     inkscape:pageopacity="0"
     inkscape:pageshadow="2"
     inkscape:window-width="1207"
     inkscape:window-height="724"
     id="namedview42"
     showgrid="false"
     inkscape:zoom="0.47939443"
     inkscape:cx="238.65203"
     inkscape:cy="249.92466"
     inkscape:window-x="0"
     inkscape:window-y="0"
     inkscape:window-maximized="0"
     inkscape:current-layer="svg2"
     fit-margin-top="0"
     fit-margin-left="0"
     fit-margin-right="0"
     fit-margin-bottom="0" />
  <g
     id="g4"
     style="stroke-width:2.5"
     transform="matrix(-1,0,0,1,911,-3.4985)">
    <rect
       height="128.71001"
       width="128"
       y="437.88998"
       x="559.88"
       id="rect16"
       style="fill:#344624;fill-opacity:1;stroke:none" />
    <rect
       height="215.28"
       width="222.45"
       y="351.31"
       x="680.65308"
       id="rect18"
       style="fill:#4c6238;fill-opacity:1;stroke:none" />
    <rect
       height="342"
       width="343.20001"
       y="10.7"
       x="559.8999"
       id="rect20"
       style="fill:#71875d;fill-opacity:1;stroke:none" />
    <rect
       height="555.45898"
       width="549.95825"
       y="11.120073"
       x="10.919866"
       id="rect22"
       style="fill:#a2b690;fill-opacity:0.94117647;stroke:none;stroke-width:2.53999615" />
  </g>
  <g
     id="g24"
     style="stroke-width:5"
     transform="matrix(-1,0,0,1,911,-3.4985)">
    <path
       d="m 400,-213.81 a 16,16 0 0 1 -16,-16"
       transform="translate(255.88,648.31)"
       id="path26"
       inkscape:connector-curvature="0"
       style="stroke:#ffffff;stroke-width:30;stroke-linecap:round;stroke-miterlimit:4;stroke-dasharray:none;stroke-opacity:1" />
    <path
       d="m 432,-245.81 a 32,32 0 0 1 -32,32"
       transform="translate(255.88,648.31)"
       id="path28"
       inkscape:connector-curvature="0"
       style="stroke:#ffffff;stroke-width:30;stroke-miterlimit:4;stroke-dasharray:none;stroke-opacity:1" />
    <path
       d="m 384,-293.81 a 48,48 0 0 1 48,48"
       transform="translate(255.88,648.31)"
       id="path30"
       inkscape:connector-curvature="0"
       style="stroke:#ffffff;stroke-width:30;stroke-miterlimit:4;stroke-dasharray:none;stroke-opacity:1" />
    <path
       d="m 304,-213.81 a 80,80 0 0 1 80,-80"
       transform="translate(255.88,648.31)"
       id="path32"
       inkscape:connector-curvature="0"
       style="stroke:#ffffff;stroke-width:30;stroke-miterlimit:4;stroke-dasharray:none;stroke-opacity:1" />
    <path
       d="m 432,-85.812 a 128,128 0 0 1 -128,-128"
       transform="translate(255.88,648.31)"
       id="path34"
       inkscape:connector-curvature="0"
       style="stroke:#ffffff;stroke-width:30;stroke-miterlimit:4;stroke-dasharray:none;stroke-opacity:1" />
    <path
       d="m 640,-293.81 a 208,208 0 0 1 -208,208"
       transform="translate(255.88,648.31)"
       id="path36"
       inkscape:connector-curvature="0"
       style="stroke:#ffffff;stroke-width:30;stroke-miterlimit:4;stroke-dasharray:none;stroke-opacity:1" />
    <path
       d="M 16,562.5 A 544,544 0 0 1 560,18.5"
       id="path38"
       inkscape:connector-curvature="0"
       style="stroke:#ffffff;stroke-width:30;stroke-linecap:round;stroke-miterlimit:4;stroke-dasharray:none;stroke-opacity:1" />
    <path
       d="m 560,18.5 a 336,336 0 0 1 336,336"
       id="path40"
       inkscape:connector-curvature="0"
       style="stroke:#ffffff;stroke-width:30;stroke-miterlimit:4;stroke-dasharray:none;stroke-opacity:1" />
    <path
       style="stroke:#ffffff;stroke-width:30;stroke-linecap:round;stroke-miterlimit:4;stroke-dasharray:none;stroke-opacity:1"
       inkscape:connector-curvature="0"
       id="path4216"
       d="M 16,562.5 A 544,544 0 0 1 560,18.5" />
  </g>
</svg>

